HIERARCHY
ROOT Hips
{
	OFFSET -0.179506 -22.333345 2.821913
	CHANNELS 6 Xposition Yposition Zposition Zrotation Yrotation Xrotation 
	JOINT LeftUpLeg
	{
		OFFSET 6.951974 -9.140623 -0.681533
		CHANNELS 3 Zrotation Yrotation Xrotation
		JOINT LeftLeg
		{
			OFFSET 3.427654 -37.519855 -0.449580
			CHANNELS 3 Zrotation Yrotation Xrotation
			JOINT LeftFoot
			{
				OFFSET -1.359570 -39.796059 -4.369333
				CHANNELS 3 Zrotation Yrotation Xrotation
				JOINT LeftToe
				{
					OFFSET 2.635814 -5.579078 11.928840
					CHANNELS 3 Zrotation Yrotation Xrotation
					End Site
					{
						OFFSET 0.000000 0.000000 0.000000
					}
				}
			}
		}
	}
	JOINT RightUpLeg
	{
		OFFSET -6.767048 -9.052170 -0.431982
		CHANNELS 3 Zrotation Yrotation Xrotation
		JOINT RightLeg
		{
			OFFSET -3.829005 -38.256897 -0.885003
			CHANNELS 3 Zrotation Yrotation Xrotation
			JOINT RightFoot
			{
				OFFSET 1.577377 -39.841461 -4.231180
				CHANNELS 3 Zrotation Yrotation Xrotation
				JOINT RightToe
				{
					OFFSET -2.537174 -4.814398 12.334795
					CHANNELS 3 Zrotation Yrotation Xrotation
					End Site
					{
						OFFSET 0.000000 0.000000 0.000000
					}
				}
			}
		}
	}
	JOINT Spine
	{
		OFFSET -0.253288 10.896323 -2.669631
		CHANNELS 3 Zrotation Yrotation Xrotation
		JOINT Spine1
		{
			OFFSET 0.548704 13.518043 0.109247
			CHANNELS 3 Zrotation Yrotation Xrotation
			JOINT Spine2
			{
				OFFSET 0.145701 5.292222 2.542457
				CHANNELS 3 Zrotation Yrotation Xrotation
				JOINT Neck
				{
					OFFSET -0.277840 21.387037 -4.285703
					CHANNELS 3 Zrotation Yrotation Xrotation
					JOINT Head
					{
						OFFSET 0.515184 6.496960 5.134897
						CHANNELS 3 Zrotation Yrotation Xrotation
						End Site
						{
							OFFSET 0.000000 0.000000 0.000000
						}
					}
				}
				JOINT LeftShoulder
				{
					OFFSET 7.884473 12.174932 -3.408961
					CHANNELS 3 Zrotation Yrotation Xrotation
					JOINT LeftArm
					{
						OFFSET 9.097692 3.046888 -0.886815
						CHANNELS 3 Zrotation Yrotation Xrotation
						JOINT LeftForeArm
						{
							OFFSET 25.961220 -1.277207 -2.745643
							CHANNELS 3 Zrotation Yrotation Xrotation
							JOINT LeftHand
							{
								OFFSET 24.923361 0.898606 -0.117091
								CHANNELS 3 Zrotation Yrotation Xrotation
								End Site
								{
									OFFSET 0.000000 0.000000 0.000000
								}
							}
						}
					}
				}
				JOINT RightShoulder
				{
					OFFSET -8.175920 11.883285 -3.861528
					CHANNELS 3 Zrotation Yrotation Xrotation
					JOINT RightArm
					{
						OFFSET -9.601238 3.255117 -0.914307
						CHANNELS 3 Zrotation Yrotation Xrotation
						JOINT RightForeArm
						{
							OFFSET -25.374195 -1.332924 -2.140099
							CHANNELS 3 Zrotation Yrotation Xrotation
							JOINT RightHand
							{
								OFFSET -25.529810 0.777228 -0.555919
								CHANNELS 3 Zrotation Yrotation Xrotation
								End Site
								{
									OFFSET 0.000000 0.000000 0.000000
								}
							}
						}
					}
				}
			}
		}
	}
}
MOTION
Frames: 12
Frame Time: 0.033333
-45.002373 219.911560 95.392975 -139.519326 2.291654 85.171981 10.116664 6.125442 6.016879 -2.081245 -3.525527 10.969313 2.483419 10.005563 -22.430008 nan nan nan -5.567857 -4.629034 -2.745426 3.203649 -1.121331 13.554893 4.393285 -2.541753 -14.796521 nan nan nan -0.917553 -3.910947 0.138912 2.637057 -8.288032 8.595700 1.268177 -5.708010 -2.978925 -2.385703 -8.711500 18.713708 6.385878 -0.207809 18.554359 -21.993520 -9.451021 8.501516 -57.744421 -13.807977 19.518735 -112.617351 -76.387299 132.330382 -4.043421 -1.486809 -23.391933 11.905498 -0.713239 7.682467 59.196803 -6.813805 16.683959 177.157700 72.236602 -175.541053 -10.618957 -3.276187 -45.982964 
-44.976727 219.976715 95.382896 -139.546183 2.319017 85.258759 10.249956 6.218469 6.007360 -2.121542 -3.429253 10.906456 2.315260 9.822794 -22.454976 nan nan nan -5.471604 -4.615058 -2.705995 3.193029 -1.135238 13.388442 4.404425 -2.505327 -14.838832 nan nan nan -0.909853 -3.929133 -0.014227 2.678212 -8.256460 8.707455 1.288040 -5.710268 -3.019868 -2.350220 -8.682053 18.736531 6.361901 -0.175619 18.563416 -21.933071 -9.361297 8.501010 -57.819963 -13.666012 19.546085 -112.679422 -76.200554 132.609812 -3.519312 -1.495707 -22.995869 11.886975 -0.800423 7.687856 59.211481 -6.848767 16.656131 176.553115 72.257561 -176.169227 -10.507988 -3.018862 -45.790260 
-44.952602 220.034698 95.375954 -139.525836 2.345392 85.307974 10.368950 6.215714 6.053025 -2.192432 -3.367727 10.803511 2.254397 9.681174 -22.497953 nan nan nan -5.442661 -4.606167 -2.597121 3.256814 -1.128737 13.195142 4.480226 -2.530341 -14.928404 nan nan nan -0.948328 -3.891899 -0.129037 2.767609 -8.280352 8.863492 1.296691 -5.712357 -3.056563 -2.185627 -8.655447 18.596032 6.295979 -0.258009 18.744324 -21.832376 -9.309700 8.520266 -57.817179 -13.741276 19.519848 -112.522394 -76.150584 132.271371 -3.723035 -1.886315 -23.121962 11.923278 -0.942940 7.620724 59.185254 -6.842650 16.575984 176.446267 72.406966 -175.995986 -9.620309 -2.322354 -45.126095 
-44.931522 220.086563 95.371925 -139.446461 2.331818 85.337355 10.423076 6.199870 6.076555 -2.278795 -3.473051 10.736913 2.284353 9.679927 -22.514731 nan nan nan -5.494150 -4.657341 -2.455214 3.344752 -1.117506 12.974876 4.459964 -2.467941 -15.035063 nan nan nan -0.973456 -3.891936 -0.135363 2.787388 -8.340336 8.896390 1.310035 -5.690741 -3.083113 -2.220225 -8.689557 18.657239 6.338870 -0.317201 18.659507 -21.789910 -9.298671 8.590736 -57.649820 -13.662472 19.527715 -113.269649 -76.085741 132.688343 -3.485741 -1.893580 -23.604040 11.959106 -0.933619 7.675978 59.211613 -7.065145 16.705614 175.983310 72.335055 -176.645421 -10.016221 -2.138180 -45.005172 
-44.904778 220.140900 95.361374 -139.364352 2.350250 85.379448 10.507888 6.181532 6.056232 -2.344310 -3.609880 10.700681 2.324785 9.736051 -22.477672 nan nan nan -5.499396 -4.756258 -2.355226 3.421133 -1.127916 12.773292 4.353404 -2.437998 -15.123880 nan nan nan -0.952848 -3.916624 -0.124113 2.774341 -8.390613 8.932976 1.325397 -5.650789 -3.147934 -2.321535 -8.723478 18.711796 6.417669 -0.311931 18.566689 -21.763524 -9.298347 8.648353 -57.475506 -13.426166 19.518635 -114.953082 -75.972993 134.327397 -3.301164 -1.476432 -24.026415 12.027804 -0.907502 7.771005 59.238359 -7.232284 16.675939 175.457804 72.267622 -177.116482 -10.177375 -2.187012 -44.808190 
-44.882648 220.202789 95.341148 -139.368905 2.356789 85.427698 10.583617 6.185444 6.098269 -2.402152 -3.648713 10.582565 2.324852 9.775249 -22.480284 nan nan nan -5.493523 -4.848945 -2.287803 3.478533 -1.072679 12.587106 4.249951 -2.396239 -15.189545 nan nan nan -0.956156 -3.924351 -0.147813 2.771758 -8.397869 8.976118 1.345819 -5.633443 -3.193883 -2.354473 -8.758703 18.691172 6.389173 -0.228546 18.540108 -21.739600 -9.192603 8.568623 -57.283299 -13.251139 19.528603 -116.195298 -75.881853 135.510123 -3.438776 -1.176503 -24.029239 12.060294 -0.947768 7.747203 59.154232 -7.355038 16.703456 174.982008 72.304593 -177.559353 -9.417830 -2.072008 -44.632067 
-44.870811 220.279480 95.314545 -139.366740 2.393664 85.456316 10.716230 6.215508 6.152900 -2.466296 -3.645876 10.505134 2.307829 9.752096 -22.491760 nan nan nan -5.422467 -4.933939 -2.138104 3.486966 -1.004642 12.326035 4.152440 -2.376174 -15.285211 nan nan nan -0.924978 -3.958245 -0.218549 2.769648 -8.406245 9.066201 1.350952 -5.611935 -3.183232 -2.331310 -8.760039 18.662236 6.360874 -0.090199 18.471423 -21.677300 -9.008957 8.421728 -57.011767 -13.230620 19.395807 -116.949615 -75.647602 136.471564 -4.176044 -1.102365 -24.200384 12.081906 -0.987867 7.777390 59.098888 -7.351589 16.721866 174.468593 72.398672 -177.906024 -8.712218 -1.729008 -44.511235 
-44.863956 220.343460 95.297272 -139.384796 2.376070 85.481055 10.787099 6.268189 6.135225 -2.534331 -3.540591 10.588614 2.283637 9.645039 -22.489467 nan nan nan -5.385878 -4.926204 -1.971512 3.465545 -0.924749 12.040880 4.118139 -2.425993 -15.341564 nan nan nan -0.868931 -3.967048 -0.255364 2.714057 -8.371358 9.077835 1.342396 -5.550382 -3.166631 -2.412841 -8.813067 18.698694 6.367286 -0.044731 18.429962 -21.624334 -8.904909 8.410005 -56.903554 -13.228160 19.283800 -116.505317 -75.353336 135.857969 -3.843031 -1.246138 -23.687190 12.041548 -1.007938 7.850648 59.338789 -7.280508 16.833518 173.500921 72.516171 -179.067767 -9.797498 -1.593512 -44.099038 
-44.863056 220.390167 95.282227 -139.392273 2.328868 85.473704 10.790441 6.251857 6.120870 -2.585613 -3.527611 10.711845 2.244855 9.655077 -22.530636 nan nan nan -5.393279 -4.907661 -1.789176 3.482964 -0.761839 11.768064 4.073757 -2.552830 -15.527499 nan nan nan -0.878241 -3.938287 -0.269534 2.668268 -8.380056 9.085973 1.315941 -5.515505 -3.078662 -2.444798 -8.825431 18.642001 6.462030 -0.117793 18.527552 -21.414080 -8.811556 8.314159 -56.897682 -13.158976 19.453068 -116.250445 -75.171897 135.369665 -2.865822 -1.175920 -23.815653 12.044438 -0.994293 7.844099 59.529671 -7.189263 17.063111 172.923138 72.635058 -179.952565 -10.703602 -1.754954 -43.975761 
-44.860397 220.419998 95.258957 -139.415064 2.256319 85.509601 10.768797 6.186888 6.038675 -2.664601 -3.513206 10.852895 2.244398 9.705373 -22.487700 nan nan nan -5.436587 -4.885252 -1.654025 3.525703 -0.602714 11.489729 3.920541 -2.706873 -15.719166 nan nan nan -0.949797 -3.869300 -0.342032 2.680538 -8.410117 9.102713 1.284834 -5.478220 -2.992225 -2.404561 -8.731936 18.594253 6.550972 -0.216079 18.617454 -21.048023 -8.692012 8.277395 -57.108665 -13.108384 19.745787 -115.980222 -75.108520 135.044596 -1.747186 -1.120813 -24.760815 12.009749 -1.044395 7.857958 59.642144 -7.127933 17.264189 172.952731 72.705793 -179.823197 -10.779705 -1.805102 -44.226802 
-44.868729 220.474289 95.220932 -139.405324 2.201988 85.475794 10.822367 6.229783 5.963922 -2.726280 -3.421057 11.143196 2.071122 9.417431 -22.601361 nan nan nan -5.411074 -4.816841 -1.414923 3.428103 -0.541047 11.161320 3.747401 -2.739319 -15.998514 nan nan nan -1.024672 -3.771024 -0.351085 2.686482 -8.442469 9.252883 1.279315 -5.467500 -3.078704 -2.276227 -8.600226 18.647561 6.564968 -0.391654 18.560654 -20.826324 -8.613862 8.268742 -57.058042 -13.123144 19.707641 -116.339919 -75.152028 135.988686 -2.263671 -1.280174 -24.968275 12.097642 -1.073660 7.968299 59.654067 -7.102401 17.281177 172.785189 72.747003 -179.482749 -10.480119 -1.634925 -44.411976 
-44.889549 220.520050 95.176674 -139.427558 2.128964 85.470547 10.923123 6.355832 5.708569 -2.909266 -3.261245 11.757842 1.851910 9.064703 -22.862851 nan nan nan -5.431105 -4.805058 -1.269798 3.340309 -0.463295 10.943977 3.596138 -2.660334 -16.378781 nan nan nan -1.055977 -3.701177 -0.315288 2.654029 -8.388647 9.202259 1.282961 -5.484693 -3.049304 -2.168988 -8.521919 18.591962 6.537211 -0.425472 18.633533 -20.744285 -8.513444 8.275500 -56.901165 -12.990185 19.486799 -117.197368 -74.966024 137.517697 -2.984211 -1.476837 -24.298922 12.050500 -1.091608 8.091558 59.862275 -7.112160 17.207043 171.964245 72.772088 179.885506 -10.809956 -1.615175 -44.181821 
